<?xml version="1.0" encoding="UTF-8"?>
<svg width="95px" height="95px" viewBox="0 0 95 95" version="1.1" xmlns="http://www.w3.org/2000/svg" xmlns:xlink="http://www.w3.org/1999/xlink">
    <!-- Generator: Sketch 45.2 (43514) - http://www.bohemiancoding.com/sketch -->
    <title>Artboard</title>
    <desc>Created with Sketch.</desc>
    <defs>
        <path d="M49,47 C49,49.7614237 58.8497355,52 71,52 C83.1502645,52 93,49.7614237 93,47 C93,44.2385763 83.1502645,42 71,42 C58.8497355,42 49,44.2385763 49,47 Z" id="path-1"></path>
        <path d="M2,47 C2,49.7614237 11.8497355,52 24,52 C36.1502645,52 46,49.7614237 46,47 C46,44.2385763 36.1502645,42 24,42 C11.8497355,42 2,44.2385763 2,47 Z" id="path-2"></path>
        <path d="M47,2 C44.2385763,2 42,11.8497355 42,24 C42,36.1502645 44.2385763,46 47,46 C49.7614237,46 52,36.1502645 52,24 C52,11.8497355 49.7614237,2 47,2 Z" id="path-3"></path>
        <path d="M47,49 C44.2385763,49 42,58.8497355 42,71 C42,83.1502645 44.2385763,93 47,93 C49.7614237,93 52,83.1502645 52,71 C52,58.8497355 49.7614237,49 47,49 Z" id="path-4"></path>
        <path d="M49.4302424,46.5697576 C51.4569948,48.59651 60.0708201,43.2686995 68.6697598,34.6697598 C77.2686995,26.0708201 82.59651,17.4569948 80.5697576,15.4302424 C78.5430052,13.40349 69.9291799,18.7313005 61.3302402,27.3302402 C52.7313005,35.9291799 47.40349,44.5430052 49.4302424,46.5697576 Z" id="path-5"></path>
        <path d="M15.4302424,80.5697576 C17.4569948,82.59651 26.0708201,77.2686995 34.6697598,68.6697598 C43.2686995,60.0708201 48.59651,51.4569948 46.5697576,49.4302424 C44.5430052,47.40349 35.9291799,52.7313005 27.3302402,61.3302402 C18.7313005,69.9291799 13.40349,78.5430052 15.4302424,80.5697576 Z" id="path-6"></path>
        <path d="M15.4302424,15.4302424 C13.40349,17.4569948 18.7313005,26.0708201 27.3302402,34.6697598 C35.9291799,43.2686995 44.5430052,48.59651 46.5697576,46.5697576 C48.59651,44.5430052 43.2686995,35.9291799 34.6697598,27.3302402 C26.0708201,18.7313005 17.4569948,13.40349 15.4302424,15.4302424 Z" id="path-7"></path>
        <path d="M48.4302424,49.4302424 C46.40349,51.4569948 51.7313005,60.0708201 60.3302402,68.6697598 C68.9291799,77.2686995 77.5430052,82.59651 79.5697576,80.5697576 C81.59651,78.5430052 76.2686995,69.9291799 67.6697598,61.3302402 C59.0708201,52.7313005 50.4569948,47.40349 48.4302424,49.4302424 Z" id="path-8"></path>
        <path d="M49,48 C49,50.209139 56.6111593,52 66,52 C75.3888407,52 83,50.209139 83,48 C83,45.790861 75.3888407,44 66,44 C56.6111593,44 49,45.790861 49,48 Z" id="path-9"></path>
        <path d="M13,48 C13,50.209139 20.6111593,52 30,52 C39.3888407,52 47,50.209139 47,48 C47,45.790861 39.3888407,44 30,44 C20.6111593,44 13,45.790861 13,48 Z" id="path-10"></path>
        <path d="M47,12 C44.790861,12 43,19.6111593 43,29 C43,38.3888407 44.790861,46 47,46 C49.209139,46 51,38.3888407 51,29 C51,19.6111593 49.209139,12 47,12 Z" id="path-11"></path>
        <path d="M47,49 C44.790861,49 43,56.6111593 43,66 C43,75.3888407 44.790861,83 47,83 C49.209139,83 51,75.3888407 51,66 C51,56.6111593 49.209139,49 47,49 Z" id="path-12"></path>
        <path d="M48.3251787,45.6748213 C49.8510597,47.2007024 56.3150263,43.2106778 62.762852,36.762852 C69.2106778,30.3150263 73.2007024,23.8510597 71.6748213,22.3251787 C70.1489403,20.7992976 63.6849737,24.7893222 57.237148,31.237148 C50.7893222,37.6849737 46.7992976,44.1489403 48.3251787,45.6748213 Z" id="path-13"></path>
        <path d="M22.3251787,71.6748213 C23.8510597,73.2007024 30.3150263,69.2106778 36.762852,62.762852 C43.2106778,56.3150263 47.2007024,49.8510597 45.6748213,48.3251787 C44.1489403,46.7992976 37.6849737,50.7893222 31.237148,57.237148 C24.7893222,63.6849737 20.7992976,70.1489403 22.3251787,71.6748213 Z" id="path-14"></path>
        <path d="M22.3251787,23.3251787 C20.7992976,24.8510597 24.7893222,31.3150263 31.237148,37.762852 C37.6849737,44.2106778 44.1489403,48.2007024 45.6748213,46.6748213 C47.2007024,45.1489403 43.2106778,38.6849737 36.762852,32.237148 C30.3150263,25.7893222 23.8510597,21.7992976 22.3251787,23.3251787 Z" id="path-15"></path>
        <path d="M48.3251787,48.3251787 C46.7992976,49.8510597 50.7893222,56.3150263 57.237148,62.762852 C63.6849737,69.2106778 70.1489403,73.2007024 71.6748213,71.6748213 C73.2007024,70.1489403 69.2106778,63.6849737 62.762852,57.237148 C56.3150263,50.7893222 49.8510597,46.7992976 48.3251787,48.3251787 Z" id="path-16"></path>
        <path d="M49.0984733,48.2445818 C47.99844,50.8389619 56.2407615,56.6381991 67.5082136,61.1975407 C78.7756656,65.7568822 88.8014934,67.3497983 89.9015267,64.7554182 C91.00156,62.1610381 82.7592385,56.3618009 71.4917864,51.8024593 C60.2243344,47.2431178 50.1985066,45.6502017 49.0984733,48.2445818 Z" id="path-17"></path>
        <path d="M5.09847332,30.2445818 C3.99844005,32.8389619 12.2407615,38.6381991 23.5082136,43.1975407 C34.7756656,47.7568822 44.8014934,49.3497983 45.9015267,46.7554182 C47.00156,44.1610381 38.7592385,38.3618009 27.4917864,33.8024593 C16.2243344,29.2431178 6.19850659,27.6502017 5.09847332,30.2445818 Z" id="path-18"></path>
        <path d="M64.7554182,5.09847332 C62.1610381,3.99844005 56.3618009,12.2407615 51.8024593,23.5082136 C47.2431178,34.7756656 45.6502017,44.8014934 48.2445818,45.9015267 C50.8389619,47.00156 56.6381991,38.7592385 61.1975407,27.4917864 C65.7568822,16.2243344 67.3497983,6.19850659 64.7554182,5.09847332 Z" id="path-19"></path>
        <path d="M46.7554182,49.0984733 C44.1610381,47.99844 38.3618009,56.2407615 33.8024593,67.5082136 C29.2431178,78.7756656 27.6502017,88.8014934 30.2445818,89.9015267 C32.8389619,91.00156 38.6381991,82.7592385 43.1975407,71.4917864 C47.7568822,60.2243344 49.3497983,50.1985066 46.7554182,49.0984733 Z" id="path-20"></path>
        <path d="M49.0984733,46.7554182 C50.1985066,49.3497983 60.2243344,47.7568822 71.4917864,43.1975407 C82.7592385,38.6381991 91.00156,32.8389619 89.9015267,30.2445818 C88.8014934,27.6502017 78.7756656,29.2431178 67.5082136,33.8024593 C56.2407615,38.3618009 47.99844,44.1610381 49.0984733,46.7554182 Z" id="path-21"></path>
        <path d="M5.09847332,64.7554182 C6.19850659,67.3497983 16.2243344,65.7568822 27.4917864,61.1975407 C38.7592385,56.6381991 47.00156,50.8389619 45.9015267,48.2445818 C44.8014934,45.6502017 34.7756656,47.2431178 23.5082136,51.8024593 C12.2407615,56.3618009 3.99844005,62.1610381 5.09847332,64.7554182 Z" id="path-22"></path>
        <path d="M30.2445818,5.09847332 C27.6502017,6.19850659 29.2431178,16.2243344 33.8024593,27.4917864 C38.3618009,38.7592385 44.1610381,47.00156 46.7554182,45.9015267 C49.3497983,44.8014934 47.7568822,34.7756656 43.1975407,23.5082136 C38.6381991,12.2407615 32.8389619,3.99844005 30.2445818,5.09847332 Z" id="path-23"></path>
        <path d="M48.2445818,49.0984733 C45.6502017,50.1985066 47.2431178,60.2243344 51.8024593,71.4917864 C56.3618009,82.7592385 62.1610381,91.00156 64.7554182,89.9015267 C67.3497983,88.8014934 65.7568822,78.7756656 61.1975407,67.5082136 C56.6381991,56.2407615 50.8389619,47.99844 48.2445818,49.0984733 Z" id="path-24"></path>
        <path d="M49.0750524,47.989 C48.2399909,50.0434417 54.4690241,54.6239697 62.9879874,58.2198958 C71.5069508,61.8158218 79.0898862,63.0654417 79.9249476,61.011 C80.7600091,58.9565583 74.5309759,54.3760303 66.0120126,50.7801042 C57.4930492,47.1841782 49.9101138,45.9345583 49.0750524,47.989 Z" id="path-25"></path>
        <path d="M15.0750524,33.989 C14.2399909,36.0434417 20.4690241,40.6239697 28.9879874,44.2198958 C37.5069508,47.8158218 45.0898862,49.0654417 45.9249476,47.011 C46.7600091,44.9565583 40.5309759,40.3760303 32.0120126,36.7801042 C23.4930492,33.1841782 15.9101138,31.9345583 15.0750524,33.989 Z" id="path-26"></path>
        <path d="M61.011,15.0750524 C58.9565583,14.2399909 54.3760303,20.4690241 50.7801042,28.9879874 C47.1841782,37.5069508 45.9345583,45.0898862 47.989,45.9249476 C50.0434417,46.7600091 54.6239697,40.5309759 58.2198958,32.0120126 C61.8158218,23.4930492 63.0654417,15.9101138 61.011,15.0750524 Z" id="path-27"></path>
        <path d="M47.011,49.0750524 C44.9565583,48.2399909 40.3760303,54.4690241 36.7801042,62.9879874 C33.1841782,71.5069508 31.9345583,79.0898862 33.989,79.9249476 C36.0434417,80.7600091 40.6239697,74.5309759 44.2198958,66.0120126 C47.8158218,57.4930492 49.0654417,49.9101138 47.011,49.0750524 Z" id="path-28"></path>
        <path d="M49.0750524,47.011 C49.9101138,49.0654417 57.4930492,47.8158218 66.0120126,44.2198958 C74.5309759,40.6239697 80.7600091,36.0434417 79.9249476,33.989 C79.0898862,31.9345583 71.5069508,33.1841782 62.9879874,36.7801042 C54.4690241,40.3760303 48.2399909,44.9565583 49.0750524,47.011 Z" id="path-29"></path>
        <path d="M15.0750524,61.011 C15.9101138,63.0654417 23.4930492,61.8158218 32.0120126,58.2198958 C40.5309759,54.6239697 46.7600091,50.0434417 45.9249476,47.989 C45.0898862,45.9345583 37.5069508,47.1841782 28.9879874,50.7801042 C20.4690241,54.3760303 14.2399909,58.9565583 15.0750524,61.011 Z" id="path-30"></path>
        <path d="M33.989,15.0750524 C31.9345583,15.9101138 33.1841782,23.4930492 36.7801042,32.0120126 C40.3760303,40.5309759 44.9565583,46.7600091 47.011,45.9249476 C49.0654417,45.0898862 47.8158218,37.5069508 44.2198958,28.9879874 C40.6239697,20.4690241 36.0434417,14.2399909 33.989,15.0750524 Z" id="path-31"></path>
        <path d="M47.989,49.0750524 C45.9345583,49.9101138 47.1841782,57.4930492 50.7801042,66.0120126 C54.3760303,74.5309759 58.9565583,80.7600091 61.011,79.9249476 C63.0654417,79.0898862 61.8158218,71.5069508 58.2198958,62.9879874 C54.6239697,54.4690241 50.0434417,48.2399909 47.989,49.0750524 Z" id="path-32"></path>
        <path d="M47.5648211,47.945163 C47.5648211,47.0380934 50.6720415,46.3027682 54.5049921,46.3027682 C58.3379426,46.3027682 61.445163,47.0380934 61.445163,47.945163 C61.445163,48.8522326 58.3379426,49.5875578 54.5049921,49.5875578 C50.6720415,49.5875578 47.5648211,48.8522326 47.5648211,47.945163 Z M32.445163,47.945163 C32.445163,47.0380934 35.5523834,46.3027682 39.3853339,46.3027682 C43.2182845,46.3027682 46.3255049,47.0380934 46.3255049,47.945163 C46.3255049,48.8522326 43.2182845,49.5875578 39.3853339,49.5875578 C35.5523834,49.5875578 32.445163,48.8522326 32.445163,47.945163 Z M46.8625419,33.445163 C47.7696115,33.445163 48.5049367,36.5523834 48.5049367,40.3853339 C48.5049367,44.2182845 47.7696115,47.3255049 46.8625419,47.3255049 C45.9554723,47.3255049 45.2201471,44.2182845 45.2201471,40.3853339 C45.2201471,36.5523834 45.9554723,33.445163 46.8625419,33.445163 Z M46.8625419,48.5648211 C47.7696115,48.5648211 48.5049367,51.6720415 48.5049367,55.5049921 C48.5049367,59.3379426 47.7696115,62.445163 46.8625419,62.445163 C45.9554723,62.445163 45.2201471,59.3379426 45.2201471,55.5049921 C45.2201471,51.6720415 45.9554723,48.5648211 46.8625419,48.5648211 Z" id="path-33"></path>
        <path d="M47.011,49.0750524 C44.9565583,48.2399909 40.3760303,54.4690241 36.7801042,62.9879874 C33.1841782,71.5069508 31.9345583,79.0898862 33.989,79.9249476 C36.0434417,80.7600091 40.6239697,74.5309759 44.2198958,66.0120126 C47.8158218,57.4930492 49.0654417,49.9101138 47.011,49.0750524 Z" id="path-34"></path>
        <path d="M48.1196581,47.5 C48.1196581,46.5929304 51.2268785,45.8576052 55.0598291,45.8576052 C58.8927796,45.8576052 62,46.5929304 62,47.5 C62,48.4070696 58.8927796,49.1423948 55.0598291,49.1423948 C51.2268785,49.1423948 48.1196581,48.4070696 48.1196581,47.5 Z M33,47.5 C33,46.5929304 36.1072204,45.8576052 39.9401709,45.8576052 C43.7731215,45.8576052 46.8803419,46.5929304 46.8803419,47.5 C46.8803419,48.4070696 43.7731215,49.1423948 39.9401709,49.1423948 C36.1072204,49.1423948 33,48.4070696 33,47.5 Z M47.4173789,33 C48.3244485,33 49.0597737,36.1072204 49.0597737,39.9401709 C49.0597737,43.7731215 48.3244485,46.8803419 47.4173789,46.8803419 C46.5103093,46.8803419 45.7749841,43.7731215 45.7749841,39.9401709 C45.7749841,36.1072204 46.5103093,33 47.4173789,33 Z M47.4173789,48.1196581 C48.3244485,48.1196581 49.0597737,51.2268785 49.0597737,55.0598291 C49.0597737,58.8927796 48.3244485,62 47.4173789,62 C46.5103093,62 45.7749841,58.8927796 45.7749841,55.0598291 C45.7749841,51.2268785 46.5103093,48.1196581 47.4173789,48.1196581 Z" id="path-35"></path>
        <path d="M48.1257548,47.5060967 C48.1257548,46.5990271 51.2329751,45.8637019 55.0659257,45.8637019 C58.8988763,45.8637019 62.0060967,46.5990271 62.0060967,47.5060967 C62.0060967,48.4131662 58.8988763,49.1484914 55.0659257,49.1484914 C51.2329751,49.1484914 48.1257548,48.4131662 48.1257548,47.5060967 Z M33.0060967,47.5060967 C33.0060967,46.5990271 36.113317,45.8637019 39.9462676,45.8637019 C43.7792182,45.8637019 46.8864385,46.5990271 46.8864385,47.5060967 C46.8864385,48.4131662 43.7792182,49.1484914 39.9462676,49.1484914 C36.113317,49.1484914 33.0060967,48.4131662 33.0060967,47.5060967 Z M47.4234756,33.0060967 C48.3305452,33.0060967 49.0658703,36.113317 49.0658703,39.9462676 C49.0658703,43.7792182 48.3305452,46.8864385 47.4234756,46.8864385 C46.516406,46.8864385 45.7810808,43.7792182 45.7810808,39.9462676 C45.7810808,36.113317 46.516406,33.0060967 47.4234756,33.0060967 Z M47.4234756,48.1257548 C48.3305452,48.1257548 49.0658703,51.2329751 49.0658703,55.0659257 C49.0658703,58.8988763 48.3305452,62.0060967 47.4234756,62.0060967 C46.516406,62.0060967 45.7810808,58.8988763 45.7810808,55.0659257 C45.7810808,51.2329751 46.516406,48.1257548 47.4234756,48.1257548 Z" id="path-36"></path>
        <path d="M47.5648211,47.945163 C47.5648211,47.0380934 50.6720415,46.3027682 54.5049921,46.3027682 C58.3379426,46.3027682 61.445163,47.0380934 61.445163,47.945163 C61.445163,48.8522326 58.3379426,49.5875578 54.5049921,49.5875578 C50.6720415,49.5875578 47.5648211,48.8522326 47.5648211,47.945163 Z M32.445163,47.945163 C32.445163,47.0380934 35.5523834,46.3027682 39.3853339,46.3027682 C43.2182845,46.3027682 46.3255049,47.0380934 46.3255049,47.945163 C46.3255049,48.8522326 43.2182845,49.5875578 39.3853339,49.5875578 C35.5523834,49.5875578 32.445163,48.8522326 32.445163,47.945163 Z M46.8625419,33.445163 C47.7696115,33.445163 48.5049367,36.5523834 48.5049367,40.3853339 C48.5049367,44.2182845 47.7696115,47.3255049 46.8625419,47.3255049 C45.9554723,47.3255049 45.2201471,44.2182845 45.2201471,40.3853339 C45.2201471,36.5523834 45.9554723,33.445163 46.8625419,33.445163 Z M46.8625419,48.5648211 C47.7696115,48.5648211 48.5049367,51.6720415 48.5049367,55.5049921 C48.5049367,59.3379426 47.7696115,62.445163 46.8625419,62.445163 C45.9554723,62.445163 45.2201471,59.3379426 45.2201471,55.5049921 C45.2201471,51.6720415 45.9554723,48.5648211 46.8625419,48.5648211 Z" id="path-37"></path>
        <path d="M47.5648211,47.945163 C47.5648211,47.0380934 50.6720415,46.3027682 54.5049921,46.3027682 C58.3379426,46.3027682 61.445163,47.0380934 61.445163,47.945163 C61.445163,48.8522326 58.3379426,49.5875578 54.5049921,49.5875578 C50.6720415,49.5875578 47.5648211,48.8522326 47.5648211,47.945163 Z M32.445163,47.945163 C32.445163,47.0380934 35.5523834,46.3027682 39.3853339,46.3027682 C43.2182845,46.3027682 46.3255049,47.0380934 46.3255049,47.945163 C46.3255049,48.8522326 43.2182845,49.5875578 39.3853339,49.5875578 C35.5523834,49.5875578 32.445163,48.8522326 32.445163,47.945163 Z M46.8625419,33.445163 C47.7696115,33.445163 48.5049367,36.5523834 48.5049367,40.3853339 C48.5049367,44.2182845 47.7696115,47.3255049 46.8625419,47.3255049 C45.9554723,47.3255049 45.2201471,44.2182845 45.2201471,40.3853339 C45.2201471,36.5523834 45.9554723,33.445163 46.8625419,33.445163 Z M46.8625419,48.5648211 C47.7696115,48.5648211 48.5049367,51.6720415 48.5049367,55.5049921 C48.5049367,59.3379426 47.7696115,62.445163 46.8625419,62.445163 C45.9554723,62.445163 45.2201471,59.3379426 45.2201471,55.5049921 C45.2201471,51.6720415 45.9554723,48.5648211 46.8625419,48.5648211 Z" id="path-38"></path>
    </defs>
    <g id="Page-1" stroke="none" stroke-width="1" fill="none" fill-rule="evenodd">
        <g id="Artboard">
            <g id="Oval">
                <use fill="#218764" fill-rule="evenodd" xlink:href="#path-1"></use>
                <path stroke="#2F5E52" stroke-width="2" d="M48,47 C48,43.3030594 58.1334613,41 71,41 C83.8665387,41 94,43.3030594 94,47 C94,50.6969406 83.8665387,53 71,53 C58.1334613,53 48,50.6969406 48,47 Z"></path>
            </g>
            <g id="Oval">
                <use fill="#218764" fill-rule="evenodd" xlink:href="#path-2"></use>
                <path stroke="#2F5E52" stroke-width="2" d="M1,47 C1,43.3030594 11.1334613,41 24,41 C36.8665387,41 47,43.3030594 47,47 C47,50.6969406 36.8665387,53 24,53 C11.1334613,53 1,50.6969406 1,47 Z"></path>
            </g>
            <g id="Oval">
                <use fill="#218764" fill-rule="evenodd" xlink:href="#path-3"></use>
                <path stroke="#2F5E52" stroke-width="2" d="M47,1 C50.6969406,1 53,11.1334613 53,24 C53,36.8665387 50.6969406,47 47,47 C43.3030594,47 41,36.8665387 41,24 C41,11.1334613 43.3030594,1 47,1 Z"></path>
            </g>
            <g id="Oval">
                <use fill="#218764" fill-rule="evenodd" xlink:href="#path-4"></use>
                <path stroke="#2F5E52" stroke-width="2" d="M47,48 C50.6969406,48 53,58.1334613 53,71 C53,83.8665387 50.6969406,94 47,94 C43.3030594,94 41,83.8665387 41,71 C41,58.1334613 43.3030594,48 47,48 Z"></path>
            </g>
            <g id="Oval">
                <use fill="#218764" fill-rule="evenodd" xlink:href="#path-5"></use>
                <path stroke="#2F5E52" stroke-width="2" d="M48.7231356,47.2768644 C46.040032,44.5937607 51.5324283,35.7138385 60.6231334,26.6231334 C69.7138385,17.5324283 78.5937607,12.040032 81.2768644,14.7231356 C83.959968,17.4062393 78.4675717,26.2861615 69.3768666,35.3768666 C60.2861615,44.4675717 51.4062393,49.959968 48.7231356,47.2768644 Z"></path>
            </g>
            <g id="Oval">
                <use fill="#218764" fill-rule="evenodd" xlink:href="#path-6"></use>
                <path stroke="#2F5E52" stroke-width="2" d="M14.7231356,81.2768644 C12.040032,78.5937607 17.5324283,69.7138385 26.6231334,60.6231334 C35.7138385,51.5324283 44.5937607,46.040032 47.2768644,48.7231356 C49.959968,51.4062393 44.4675717,60.2861615 35.3768666,69.3768666 C26.2861615,78.4675717 17.4062393,83.959968 14.7231356,81.2768644 Z"></path>
            </g>
            <g id="Oval">
                <use fill="#218764" fill-rule="evenodd" xlink:href="#path-7"></use>
                <path stroke="#2F5E52" stroke-width="2" d="M14.7231356,14.7231356 C17.4062393,12.040032 26.2861615,17.5324283 35.3768666,26.6231334 C44.4675717,35.7138385 49.959968,44.5937607 47.2768644,47.2768644 C44.5937607,49.959968 35.7138385,44.4675717 26.6231334,35.3768666 C17.5324283,26.2861615 12.040032,17.4062393 14.7231356,14.7231356 Z"></path>
            </g>
            <g id="Oval">
                <use fill="#218764" fill-rule="evenodd" xlink:href="#path-8"></use>
                <path stroke="#2F5E52" stroke-width="2" d="M47.7231356,48.7231356 C50.4062393,46.040032 59.2861615,51.5324283 68.3768666,60.6231334 C77.4675717,69.7138385 82.959968,78.5937607 80.2768644,81.2768644 C77.5937607,83.959968 68.7138385,78.4675717 59.6231334,69.3768666 C50.5324283,60.2861615 45.040032,51.4062393 47.7231356,48.7231356 Z"></path>
            </g>
            <g id="Oval">
                <use fill="#1BDE81" fill-rule="evenodd" xlink:href="#path-9"></use>
                <path stroke="#2F5E52" stroke-width="2" d="M48,48 C48,44.8622924 55.9147429,43 66,43 C76.0852571,43 84,44.8622924 84,48 C84,51.1377076 76.0852571,53 66,53 C55.9147429,53 48,51.1377076 48,48 Z"></path>
            </g>
            <g id="Oval">
                <use fill="#1BDE81" fill-rule="evenodd" xlink:href="#path-10"></use>
                <path stroke="#2F5E52" stroke-width="2" d="M12,48 C12,44.8622924 19.9147429,43 30,43 C40.0852571,43 48,44.8622924 48,48 C48,51.1377076 40.0852571,53 30,53 C19.9147429,53 12,51.1377076 12,48 Z"></path>
            </g>
            <g id="Oval">
                <use fill="#1BDE81" fill-rule="evenodd" xlink:href="#path-11"></use>
                <path stroke="#2F5E52" stroke-width="2" d="M47,11 C50.1377076,11 52,18.9147429 52,29 C52,39.0852571 50.1377076,47 47,47 C43.8622924,47 42,39.0852571 42,29 C42,18.9147429 43.8622924,11 47,11 Z"></path>
            </g>
            <g id="Oval">
                <use fill="#1BDE81" fill-rule="evenodd" xlink:href="#path-12"></use>
                <path stroke="#2F5E52" stroke-width="2" d="M47,48 C50.1377076,48 52,55.9147429 52,66 C52,76.0852571 50.1377076,84 47,84 C43.8622924,84 42,76.0852571 42,66 C42,55.9147429 43.8622924,48 47,48 Z"></path>
            </g>
            <g id="Oval">
                <use fill="#1BDE81" fill-rule="evenodd" xlink:href="#path-13"></use>
                <path stroke="#2F5E52" stroke-width="2" d="M47.6180719,46.3819281 C45.436419,44.2002752 49.5920315,37.4680509 56.5300412,30.5300412 C63.4680509,23.5920315 70.2002752,19.436419 72.3819281,21.6180719 C74.563581,23.7997248 70.4079685,30.5319491 63.4699588,37.4699588 C56.5319491,44.4079685 49.7997248,48.563581 47.6180719,46.3819281 Z"></path>
            </g>
            <g id="Oval">
                <use fill="#1BDE81" fill-rule="evenodd" xlink:href="#path-14"></use>
                <path stroke="#2F5E52" stroke-width="2" d="M21.6180719,72.3819281 C19.436419,70.2002752 23.5920315,63.4680509 30.5300412,56.5300412 C37.4680509,49.5920315 44.2002752,45.436419 46.3819281,47.6180719 C48.563581,49.7997248 44.4079685,56.5319491 37.4699588,63.4699588 C30.5319491,70.4079685 23.7997248,74.563581 21.6180719,72.3819281 Z"></path>
            </g>
            <g id="Oval">
                <use fill="#1BDE81" fill-rule="evenodd" xlink:href="#path-15"></use>
                <path stroke="#2F5E52" stroke-width="2" d="M21.6180719,22.6180719 C23.7997248,20.436419 30.5319491,24.5920315 37.4699588,31.5300412 C44.4079685,38.4680509 48.563581,45.2002752 46.3819281,47.3819281 C44.2002752,49.563581 37.4680509,45.4079685 30.5300412,38.4699588 C23.5920315,31.5319491 19.436419,24.7997248 21.6180719,22.6180719 Z"></path>
            </g>
            <g id="Oval">
                <use fill="#1BDE81" fill-rule="evenodd" xlink:href="#path-16"></use>
                <path stroke="#2F5E52" stroke-width="2" d="M47.6180719,47.6180719 C49.7997248,45.436419 56.5319491,49.5920315 63.4699588,56.5300412 C70.4079685,63.4680509 74.563581,70.2002752 72.3819281,72.3819281 C70.2002752,74.563581 63.4680509,70.4079685 56.5300412,63.4699588 C49.5920315,56.5319491 45.436419,49.7997248 47.6180719,47.6180719 Z"></path>
            </g>
            <g id="Oval">
                <use fill="#218764" fill-rule="evenodd" xlink:href="#path-17"></use>
                <path stroke="#2F5E52" stroke-width="2" d="M48.1778134,47.8542163 C49.6357072,44.4158379 59.9550614,46.0553898 71.8668877,50.8754755 C83.7966868,55.7028338 92.2917451,61.6798948 90.8221866,65.1457837 C89.3642928,68.5841621 79.0449386,66.9446102 67.1331123,62.1245245 C55.2033132,57.2971662 46.7082549,51.3201052 48.1778134,47.8542163 Z"></path>
            </g>
            <g id="Oval">
                <use fill="#218764" fill-rule="evenodd" xlink:href="#path-18"></use>
                <path stroke="#2F5E52" stroke-width="2" d="M4.17781337,29.8542163 C5.63570716,26.4158379 15.9550614,28.0553898 27.8668877,32.8754755 C39.7966868,37.7028338 48.2917451,43.6798948 46.8221866,47.1457837 C45.3642928,50.5841621 35.0449386,48.9446102 23.1331123,44.1245245 C11.2033132,39.2971662 2.70825494,33.3201052 4.17781337,29.8542163 Z"></path>
            </g>
            <g id="Oval">
                <use fill="#218764" fill-rule="evenodd" xlink:href="#path-19"></use>
                <path stroke="#2F5E52" stroke-width="2" d="M65.1457837,4.17781337 C68.5841621,5.63570716 66.9446102,15.9550614 62.1245245,27.8668877 C57.2971662,39.7966868 51.3201052,48.2917451 47.8542163,46.8221866 C44.4158379,45.3642928 46.0553898,35.0449386 50.8754755,23.1331123 C55.7028338,11.2033132 61.6798948,2.70825494 65.1457837,4.17781337 Z"></path>
            </g>
            <g id="Oval">
                <use fill="#218764" fill-rule="evenodd" xlink:href="#path-20"></use>
                <path stroke="#2F5E52" stroke-width="2" d="M47.1457837,48.1778134 C50.5841621,49.6357072 48.9446102,59.9550614 44.1245245,71.8668877 C39.2971662,83.7966868 33.3201052,92.2917451 29.8542163,90.8221866 C26.4158379,89.3642928 28.0553898,79.0449386 32.8754755,67.1331123 C37.7028338,55.2033132 43.6798948,46.7082549 47.1457837,48.1778134 Z"></path>
            </g>
            <g id="Oval">
                <use fill="#218764" fill-rule="evenodd" xlink:href="#path-21"></use>
                <path stroke="#2F5E52" stroke-width="2" d="M48.1778134,47.1457837 C46.7082549,43.6798948 55.2033132,37.7028338 67.1331123,32.8754755 C79.0449386,28.0553898 89.3642928,26.4158379 90.8221866,29.8542163 C92.2917451,33.3201052 83.7966868,39.2971662 71.8668877,44.1245245 C59.9550614,48.9446102 49.6357072,50.5841621 48.1778134,47.1457837 Z"></path>
            </g>
            <g id="Oval">
                <use fill="#218764" fill-rule="evenodd" xlink:href="#path-22"></use>
                <path stroke="#2F5E52" stroke-width="2" d="M4.17781337,65.1457837 C2.70825494,61.6798948 11.2033132,55.7028338 23.1331123,50.8754755 C35.0449386,46.0553898 45.3642928,44.4158379 46.8221866,47.8542163 C48.2917451,51.3201052 39.7966868,57.2971662 27.8668877,62.1245245 C15.9550614,66.9446102 5.63570716,68.5841621 4.17781337,65.1457837 Z"></path>
            </g>
            <g id="Oval">
                <use fill="#218764" fill-rule="evenodd" xlink:href="#path-23"></use>
                <path stroke="#2F5E52" stroke-width="2" d="M29.8542163,4.17781337 C33.3201052,2.70825494 39.2971662,11.2033132 44.1245245,23.1331123 C48.9446102,35.0449386 50.5841621,45.3642928 47.1457837,46.8221866 C43.6798948,48.2917451 37.7028338,39.7966868 32.8754755,27.8668877 C28.0553898,15.9550614 26.4158379,5.63570716 29.8542163,4.17781337 Z"></path>
            </g>
            <g id="Oval">
                <use fill="#218764" fill-rule="evenodd" xlink:href="#path-24"></use>
                <path stroke="#2F5E52" stroke-width="2" d="M47.8542163,48.1778134 C51.3201052,46.7082549 57.2971662,55.2033132 62.1245245,67.1331123 C66.9446102,79.0449386 68.5841621,89.3642928 65.1457837,90.8221866 C61.6798948,92.2917451 55.7028338,83.7966868 50.8754755,71.8668877 C46.0553898,59.9550614 44.4158379,49.6357072 47.8542163,48.1778134 Z"></path>
            </g>
            <g id="Oval">
                <use fill="#1BDE81" fill-rule="evenodd" xlink:href="#path-25"></use>
                <path stroke="#2F5E52" stroke-width="2" d="M48.1486557,47.6124509 C49.3364339,44.6902456 57.2430213,45.9932014 66.4008956,49.8588171 C75.5448698,53.7185655 82.0301166,58.4875005 80.8513443,61.3875491 C79.6635661,64.3097544 71.7569787,63.0067986 62.5991044,59.1411829 C53.4551302,55.2814345 46.9698834,50.5124995 48.1486557,47.6124509 Z"></path>
            </g>
            <g id="Oval">
                <use fill="#1BDE81" fill-rule="evenodd" xlink:href="#path-26"></use>
                <path stroke="#2F5E52" stroke-width="2" d="M14.1486557,33.6124509 C15.3364339,30.6902456 23.2430213,31.9932014 32.4008956,35.8588171 C41.5448698,39.7185655 48.0301166,44.4875005 46.8513443,47.3875491 C45.6635661,50.3097544 37.7569787,49.0067986 28.5991044,45.1411829 C19.4551302,41.2814345 12.9698834,36.5124995 14.1486557,33.6124509 Z"></path>
            </g>
            <g id="Oval">
                <use fill="#1BDE81" fill-rule="evenodd" xlink:href="#path-27"></use>
                <path stroke="#2F5E52" stroke-width="2" d="M61.3875491,14.1486557 C64.3097544,15.3364339 63.0067986,23.2430213 59.1411829,32.4008956 C55.2814345,41.5448698 50.5124995,48.0301166 47.6124509,46.8513443 C44.6902456,45.6635661 45.9932014,37.7569787 49.8588171,28.5991044 C53.7185655,19.4551302 58.4875005,12.9698834 61.3875491,14.1486557 Z"></path>
            </g>
            <g id="Oval">
                <use fill="#1BDE81" fill-rule="evenodd" xlink:href="#path-28"></use>
                <path stroke="#2F5E52" stroke-width="2" d="M47.3875491,48.1486557 C50.3097544,49.3364339 49.0067986,57.2430213 45.1411829,66.4008956 C41.2814345,75.5448698 36.5124995,82.0301166 33.6124509,80.8513443 C30.6902456,79.6635661 31.9932014,71.7569787 35.8588171,62.5991044 C39.7185655,53.4551302 44.4875005,46.9698834 47.3875491,48.1486557 Z"></path>
            </g>
            <g id="Oval">
                <use fill="#1BDE81" fill-rule="evenodd" xlink:href="#path-29"></use>
                <path stroke="#2F5E52" stroke-width="2" d="M48.1486557,47.3875491 C46.9698834,44.4875005 53.4551302,39.7185655 62.5991044,35.8588171 C71.7569787,31.9932014 79.6635661,30.6902456 80.8513443,33.6124509 C82.0301166,36.5124995 75.5448698,41.2814345 66.4008956,45.1411829 C57.2430213,49.0067986 49.3364339,50.3097544 48.1486557,47.3875491 Z"></path>
            </g>
            <g id="Oval">
                <use fill="#1BDE81" fill-rule="evenodd" xlink:href="#path-30"></use>
                <path stroke="#2F5E52" stroke-width="2" d="M14.1486557,61.3875491 C12.9698834,58.4875005 19.4551302,53.7185655 28.5991044,49.8588171 C37.7569787,45.9932014 45.6635661,44.6902456 46.8513443,47.6124509 C48.0301166,50.5124995 41.5448698,55.2814345 32.4008956,59.1411829 C23.2430213,63.0067986 15.3364339,64.3097544 14.1486557,61.3875491 Z"></path>
            </g>
            <g id="Oval">
                <use fill="#1BDE81" fill-rule="evenodd" xlink:href="#path-31"></use>
                <path stroke="#2F5E52" stroke-width="2" d="M33.6124509,14.1486557 C36.5124995,12.9698834 41.2814345,19.4551302 45.1411829,28.5991044 C49.0067986,37.7569787 50.3097544,45.6635661 47.3875491,46.8513443 C44.4875005,48.0301166 39.7185655,41.5448698 35.8588171,32.4008956 C31.9932014,23.2430213 30.6902456,15.3364339 33.6124509,14.1486557 Z"></path>
            </g>
            <g id="Oval">
                <use fill="#1BDE81" fill-rule="evenodd" xlink:href="#path-32"></use>
                <path stroke="#2F5E52" stroke-width="2" d="M47.6124509,48.1486557 C50.5124995,46.9698834 55.2814345,53.4551302 59.1411829,62.5991044 C63.0067986,71.7569787 64.3097544,79.6635661 61.3875491,80.8513443 C58.4875005,82.0301166 53.7185655,75.5448698 49.8588171,66.4008956 C45.9932014,57.2430213 44.6902456,49.3364339 47.6124509,48.1486557 Z"></path>
            </g>
            <g id="Combined-Shape" transform="translate(46.945163, 47.945163) rotate(22.500000) translate(-46.945163, -47.945163) ">
                <use fill="#76FABB" fill-rule="evenodd" xlink:href="#path-33"></use>
                <path stroke="#2F5E52" stroke-width="2" d="M46.5648211,47.945163 C46.5648211,46.1106919 49.9788167,45.3027682 54.5049921,45.3027682 C59.0311674,45.3027682 62.445163,46.1106919 62.445163,47.945163 C62.445163,49.7796341 59.0311674,50.5875578 54.5049921,50.5875578 C49.9788167,50.5875578 46.5648211,49.7796341 46.5648211,47.945163 Z M31.445163,47.945163 C31.445163,46.1106919 34.8591586,45.3027682 39.3853339,45.3027682 C43.9115092,45.3027682 47.3255049,46.1106919 47.3255049,47.945163 C47.3255049,49.7796341 43.9115092,50.5875578 39.3853339,50.5875578 C34.8591586,50.5875578 31.445163,49.7796341 31.445163,47.945163 Z M46.8625419,32.445163 C48.697013,32.445163 49.5049367,35.8591586 49.5049367,40.3853339 C49.5049367,44.9115092 48.697013,48.3255049 46.8625419,48.3255049 C45.0280708,48.3255049 44.2201471,44.9115092 44.2201471,40.3853339 C44.2201471,35.8591586 45.0280708,32.445163 46.8625419,32.445163 Z M46.8625419,47.5648211 C48.697013,47.5648211 49.5049367,50.9788167 49.5049367,55.5049921 C49.5049367,60.0311674 48.697013,63.445163 46.8625419,63.445163 C45.0280708,63.445163 44.2201471,60.0311674 44.2201471,55.5049921 C44.2201471,50.9788167 45.0280708,47.5648211 46.8625419,47.5648211 Z"></path>
            </g>
            <g id="Oval">
                <use fill="#1BDE81" fill-rule="evenodd" xlink:href="#path-34"></use>
                <path stroke="#2F5E52" stroke-width="2" d="M47.3875491,48.1486557 C50.3097544,49.3364339 49.0067986,57.2430213 45.1411829,66.4008956 C41.2814345,75.5448698 36.5124995,82.0301166 33.6124509,80.8513443 C30.6902456,79.6635661 31.9932014,71.7569787 35.8588171,62.5991044 C39.7185655,53.4551302 44.4875005,46.9698834 47.3875491,48.1486557 Z"></path>
            </g>
            <g id="Combined-Shape">
                <use fill="#76FABB" fill-rule="evenodd" xlink:href="#path-35"></use>
                <path stroke="#2F5E52" stroke-width="2" d="M47.1196581,47.5 C47.1196581,45.6655289 50.5336537,44.8576052 55.0598291,44.8576052 C59.5860044,44.8576052 63,45.6655289 63,47.5 C63,49.3344711 59.5860044,50.1423948 55.0598291,50.1423948 C50.5336537,50.1423948 47.1196581,49.3344711 47.1196581,47.5 Z M32,47.5 C32,45.6655289 35.4139956,44.8576052 39.9401709,44.8576052 C44.4663463,44.8576052 47.8803419,45.6655289 47.8803419,47.5 C47.8803419,49.3344711 44.4663463,50.1423948 39.9401709,50.1423948 C35.4139956,50.1423948 32,49.3344711 32,47.5 Z M47.4173789,32 C49.25185,32 50.0597737,35.4139956 50.0597737,39.9401709 C50.0597737,44.4663463 49.25185,47.8803419 47.4173789,47.8803419 C45.5829078,47.8803419 44.7749841,44.4663463 44.7749841,39.9401709 C44.7749841,35.4139956 45.5829078,32 47.4173789,32 Z M47.4173789,47.1196581 C49.25185,47.1196581 50.0597737,50.5336537 50.0597737,55.0598291 C50.0597737,59.5860044 49.25185,63 47.4173789,63 C45.5829078,63 44.7749841,59.5860044 44.7749841,55.0598291 C44.7749841,50.5336537 45.5829078,47.1196581 47.4173789,47.1196581 Z"></path>
            </g>
            <g id="Combined-Shape" transform="translate(47.506097, 47.506097) rotate(45.000000) translate(-47.506097, -47.506097) ">
                <use fill="#76FABB" fill-rule="evenodd" xlink:href="#path-36"></use>
                <path stroke="#2F5E52" stroke-width="2" d="M47.1257548,47.5060967 C47.1257548,45.6716256 50.5397504,44.8637019 55.0659257,44.8637019 C59.592101,44.8637019 63.0060967,45.6716256 63.0060967,47.5060967 C63.0060967,49.3405677 59.592101,50.1484914 55.0659257,50.1484914 C50.5397504,50.1484914 47.1257548,49.3405677 47.1257548,47.5060967 Z M32.0060967,47.5060967 C32.0060967,45.6716256 35.4200923,44.8637019 39.9462676,44.8637019 C44.4724429,44.8637019 47.8864385,45.6716256 47.8864385,47.5060967 C47.8864385,49.3405677 44.4724429,50.1484914 39.9462676,50.1484914 C35.4200923,50.1484914 32.0060967,49.3405677 32.0060967,47.5060967 Z M47.4234756,32.0060967 C49.2579466,32.0060967 50.0658703,35.4200923 50.0658703,39.9462676 C50.0658703,44.4724429 49.2579466,47.8864385 47.4234756,47.8864385 C45.5890045,47.8864385 44.7810808,44.4724429 44.7810808,39.9462676 C44.7810808,35.4200923 45.5890045,32.0060967 47.4234756,32.0060967 Z M47.4234756,47.1257548 C49.2579466,47.1257548 50.0658703,50.5397504 50.0658703,55.0659257 C50.0658703,59.592101 49.2579466,63.0060967 47.4234756,63.0060967 C45.5890045,63.0060967 44.7810808,59.592101 44.7810808,55.0659257 C44.7810808,50.5397504 45.5890045,47.1257548 47.4234756,47.1257548 Z"></path>
            </g>
            <g id="Combined-Shape" transform="translate(46.945163, 47.945163) rotate(-22.500000) translate(-46.945163, -47.945163) ">
                <use fill="#76FABB" fill-rule="evenodd" xlink:href="#path-37"></use>
                <path stroke="#2F5E52" stroke-width="2" d="M46.5648211,47.945163 C46.5648211,46.1106919 49.9788167,45.3027682 54.5049921,45.3027682 C59.0311674,45.3027682 62.445163,46.1106919 62.445163,47.945163 C62.445163,49.7796341 59.0311674,50.5875578 54.5049921,50.5875578 C49.9788167,50.5875578 46.5648211,49.7796341 46.5648211,47.945163 Z M31.445163,47.945163 C31.445163,46.1106919 34.8591586,45.3027682 39.3853339,45.3027682 C43.9115092,45.3027682 47.3255049,46.1106919 47.3255049,47.945163 C47.3255049,49.7796341 43.9115092,50.5875578 39.3853339,50.5875578 C34.8591586,50.5875578 31.445163,49.7796341 31.445163,47.945163 Z M46.8625419,32.445163 C48.697013,32.445163 49.5049367,35.8591586 49.5049367,40.3853339 C49.5049367,44.9115092 48.697013,48.3255049 46.8625419,48.3255049 C45.0280708,48.3255049 44.2201471,44.9115092 44.2201471,40.3853339 C44.2201471,35.8591586 45.0280708,32.445163 46.8625419,32.445163 Z M46.8625419,47.5648211 C48.697013,47.5648211 49.5049367,50.9788167 49.5049367,55.5049921 C49.5049367,60.0311674 48.697013,63.445163 46.8625419,63.445163 C45.0280708,63.445163 44.2201471,60.0311674 44.2201471,55.5049921 C44.2201471,50.9788167 45.0280708,47.5648211 46.8625419,47.5648211 Z"></path>
            </g>
            <g id="Combined-Shape" transform="translate(46.945163, 47.945163) rotate(22.500000) translate(-46.945163, -47.945163) ">
                <use fill="#76FABB" fill-rule="evenodd" xlink:href="#path-38"></use>
                <path stroke="#2F5E52" stroke-width="2" d="M46.5648211,47.945163 C46.5648211,46.1106919 49.9788167,45.3027682 54.5049921,45.3027682 C59.0311674,45.3027682 62.445163,46.1106919 62.445163,47.945163 C62.445163,49.7796341 59.0311674,50.5875578 54.5049921,50.5875578 C49.9788167,50.5875578 46.5648211,49.7796341 46.5648211,47.945163 Z M31.445163,47.945163 C31.445163,46.1106919 34.8591586,45.3027682 39.3853339,45.3027682 C43.9115092,45.3027682 47.3255049,46.1106919 47.3255049,47.945163 C47.3255049,49.7796341 43.9115092,50.5875578 39.3853339,50.5875578 C34.8591586,50.5875578 31.445163,49.7796341 31.445163,47.945163 Z M46.8625419,32.445163 C48.697013,32.445163 49.5049367,35.8591586 49.5049367,40.3853339 C49.5049367,44.9115092 48.697013,48.3255049 46.8625419,48.3255049 C45.0280708,48.3255049 44.2201471,44.9115092 44.2201471,40.3853339 C44.2201471,35.8591586 45.0280708,32.445163 46.8625419,32.445163 Z M46.8625419,47.5648211 C48.697013,47.5648211 49.5049367,50.9788167 49.5049367,55.5049921 C49.5049367,60.0311674 48.697013,63.445163 46.8625419,63.445163 C45.0280708,63.445163 44.2201471,60.0311674 44.2201471,55.5049921 C44.2201471,50.9788167 45.0280708,47.5648211 46.8625419,47.5648211 Z"></path>
            </g>
        </g>
    </g>
</svg>